# xmcd CD database file
#
# Track frame offsets:
#	150
#	16235
#	31908
#	48014
#	64238
#	85479
#	98678
#	115268
#	132689
#	151855
#	169487
#	185783
#	202350
#	218983
#	238051
#	257882
#
# Disc length: 3642 seconds
#
# Revision: 0
# Processed by: cddbd v1.5.1PL0 Copyright (c) Steve Scherf et al.
# Submitted via: CDex 1.51
#
DISCID=ee0e3810
DTITLE=Shania Twain - Come On Over
DYEAR=2002
DGENRE=Country
TTITLE0=You're Still The One
TTITLE1=I'm Holding On To Love
TTITLE2=Love Gets Me Every Time
TTITLE3=Don't Be Stupid (You Know I Love You)
TTITLE4=From This Moment On
TTITLE5=Come On Over
TTITLE6=When
TTITLE7=Whatever You Do! Don't!
TTITLE8=If You Wanna Touch Her. Ask!
TTITLE9=Man! I feel Like a Woman
TTITLE10=Honey. I'm Home
TTITLE11=That Don't Impress Me Much
TTITLE12=Black Eyes. Blue Tears
TTITLE13=I Won't Leave You Lonely
TTITLE14=Rock This Country
TTITLE15=You've Got A Way
EXTD=YEAR: 2002
EXTT0=
EXTT1=
EXTT2=
EXTT3=
EXTT4=
EXTT5=
EXTT6=
EXTT7=
EXTT8=
EXTT9=
EXTT10=
EXTT11=
EXTT12=
EXTT13=
EXTT14=
EXTT15=
PLAYORDER=
